<?xml version="1.0" encoding="UTF-8"?>
<svg version="1.1" xmlns="http://www.w3.org/2000/svg" width="100" height="100">
<path d="M0 0 C1.05048523 0.00607269 1.05048523 0.00607269 2.12219238 0.01226807 C2.86054321 0.00876343 3.59889404 0.00525879 4.35961914 0.00164795 C6.80661346 -0.00717336 9.25331999 -0.00131891 11.70031738 0.00543213 C13.39660701 0.00408559 15.09289627 0.00214515 16.78918457 -0.00036621 C20.34683908 -0.00331801 23.90439327 0.00098194 27.46203613 0.01031494 C32.02882879 0.02170954 36.59538638 0.01515036 41.16217041 0.00317001 C44.66566752 -0.0040471 48.16910865 -0.00176135 51.67260742 0.0034256 C53.35677111 0.00476251 55.04093984 0.00311293 56.72509766 -0.00153351 C59.07635012 -0.00659634 61.42721861 0.0011078 63.77844238 0.01226807 C64.82892761 0.00619537 64.82892761 0.00619537 65.90063477 0 C70.72178823 0.04252797 70.72178823 0.04252797 72.95031738 2.27105713 C73.25891113 4.85308838 73.25891113 4.85308838 73.38781738 8.08355713 C73.67578331 12.90965284 74.33129899 17.33363137 75.51281738 22.02105713 C76.83393007 27.2990947 77.22613047 31.846733 76.95031738 37.27105713 C75.63031738 37.60105713 74.31031738 37.93105713 72.95031738 38.27105713 C72.96079102 39.35113037 72.97126465 40.43120361 72.98205566 41.54400635 C73.01819932 45.54332172 73.04119723 49.54262259 73.06018066 53.54205322 C73.07025114 55.27449978 73.08390827 57.00692928 73.10119629 58.73931885 C73.125399 61.22650351 73.13678977 63.71346388 73.14562988 66.20074463 C73.15595245 66.97787811 73.16627502 67.7550116 73.1769104 68.55569458 C73.17731009 70.46231206 73.07263878 72.36836749 72.95031738 74.27105713 C70.51685933 76.70451518 69.22180792 76.51281779 65.90063477 76.54211426 C65.20031128 76.5380658 64.49998779 76.53401733 63.77844238 76.52984619 C62.67091614 76.53510315 62.67091614 76.53510315 61.54101562 76.54046631 C59.0940213 76.54928762 56.64731478 76.54343317 54.20031738 76.53668213 C52.50402775 76.53802867 50.8077385 76.5399691 49.1114502 76.54248047 C45.55379569 76.54543227 41.9962415 76.54113232 38.43859863 76.53179932 C33.87180598 76.52040472 29.30524838 76.52696389 24.73846436 76.53894424 C21.23496724 76.54616135 17.73152612 76.54387561 14.22802734 76.53868866 C12.54386365 76.53735175 10.85969492 76.53900133 9.17553711 76.54364777 C6.82428464 76.5487106 4.47341615 76.54100645 2.12219238 76.52984619 C1.4218689 76.53389465 0.72154541 76.53794312 0 76.54211426 C-4.82115346 76.49958628 -4.82115346 76.49958628 -7.04968262 74.27105713 C-7.22486009 71.54619985 -7.28117395 68.92446351 -7.24499512 66.20074463 C-7.24216522 65.40451691 -7.23933533 64.60828918 -7.23641968 63.78793335 C-7.22520901 61.2404895 -7.20010324 58.69339502 -7.17468262 56.14605713 C-7.16465394 54.42080178 -7.1555279 52.69554094 -7.14733887 50.97027588 C-7.12526684 46.73706799 -7.09073128 42.50412183 -7.04968262 38.27105713 C-8.36968262 37.94105713 -9.68968262 37.61105713 -11.04968262 37.27105713 C-11.38703275 30.63650451 -10.39601117 25.13073209 -8.77624512 18.70465088 C-7.80127926 14.09715094 -7.54572773 9.55073302 -7.35827637 4.85308838 C-6.77932944 0.00898816 -4.33463257 0.03823632 0 0 Z " fill="#6C74CE" transform="translate(17.0496826171875,11.72894287109375)"/>
<path d="M0 0 C26.4 0 52.8 0 80 0 C80 11.88 80 23.76 80 36 C77.56654195 38.43345805 76.27149053 38.24176066 72.95031738 38.27105713 C72.2499939 38.26700867 71.54967041 38.26296021 70.828125 38.25878906 C70.08977417 38.2622937 69.35142334 38.26579834 68.59069824 38.26940918 C66.14370392 38.27823049 63.6969974 38.27237604 61.25 38.265625 C59.55371037 38.26697154 57.85742112 38.26891197 56.16113281 38.27142334 C52.6034783 38.27437514 49.04592412 38.27007519 45.48828125 38.26074219 C40.92148859 38.24934759 36.354931 38.25590677 31.78814697 38.26788712 C28.28464986 38.27510422 24.78120874 38.27281848 21.27770996 38.26763153 C19.59354627 38.26629462 17.90937754 38.2679442 16.22521973 38.27259064 C13.87396726 38.27765347 11.52309877 38.26994933 9.171875 38.25878906 C8.47155151 38.26283752 7.77122803 38.26688599 7.04968262 38.27105713 C2.22852915 38.22852915 2.22852915 38.22852915 0 36 C0 24.12 0 12.24 0 0 Z " fill="#4FE5FE" transform="translate(10,50)"/>
<path d="M0 0 C1.05048523 0.00607269 1.05048523 0.00607269 2.12219238 0.01226807 C2.86054321 0.00876343 3.59889404 0.00525879 4.35961914 0.00164795 C6.80661346 -0.00717336 9.25331999 -0.00131891 11.70031738 0.00543213 C13.39660701 0.00408559 15.09289627 0.00214515 16.78918457 -0.00036621 C20.34683908 -0.00331801 23.90439327 0.00098194 27.46203613 0.01031494 C32.02882879 0.02170954 36.59538638 0.01515036 41.16217041 0.00317001 C44.66566752 -0.0040471 48.16910865 -0.00176135 51.67260742 0.0034256 C53.35677111 0.00476251 55.04093984 0.00311293 56.72509766 -0.00153351 C59.07635012 -0.00659634 61.42721861 0.0011078 63.77844238 0.01226807 C64.82892761 0.00619537 64.82892761 0.00619537 65.90063477 0 C70.72178823 0.04252797 70.72178823 0.04252797 72.95031738 2.27105713 C72.95031738 5.90105713 72.95031738 9.53105713 72.95031738 13.27105713 C46.55031738 13.27105713 20.15031738 13.27105713 -7.04968262 13.27105713 C-7.04968262 0.0621861 -7.04968262 0.0621861 0 0 Z " fill="#3E45A8" transform="translate(17.0496826171875,11.72894287109375)"/>
<path d="M0 0 C6.93 0 13.86 0 21 0 C21 10.56 21 21.12 21 32 C14.07 32 7.14 32 0 32 C0 21.44 0 10.88 0 0 Z " fill="#199BE2" transform="translate(23,56)"/>
<path d="M0 0 C29.04 0 58.08 0 88 0 C88 1.65 88 3.3 88 5 C86.21391943 6.78608057 83.80736465 6.12625961 81.42901611 6.13552856 C80.63001892 6.13350433 79.83102173 6.1314801 79.0078125 6.12939453 C78.1704657 6.13114685 77.3331189 6.13289917 76.47039795 6.13470459 C73.68857786 6.13912401 70.90682079 6.1361848 68.125 6.1328125 C66.20068347 6.13348551 64.27636702 6.13445552 62.35205078 6.13571167 C58.31346835 6.13718877 54.274908 6.13503371 50.23632812 6.13037109 C45.04731489 6.1246738 39.85835337 6.12795274 34.66934204 6.13394356 C30.6940878 6.13754886 26.71884591 6.13641073 22.74359131 6.13381577 C20.8297322 6.13314641 18.91587198 6.13397522 17.00201416 6.13629532 C14.3320415 6.13882133 11.6621538 6.13498198 8.9921875 6.12939453 C8.19319031 6.13141876 7.39419312 6.13344299 6.57098389 6.13552856 C1.1142625 6.1142625 1.1142625 6.1142625 0 5 C0 3.35 0 1.7 0 0 Z " fill="#353C9E" transform="translate(6,44)"/>
<path d="M0 0 C8.25 0 16.5 0 25 0 C25 6.27 25 12.54 25 19 C16.75 19 8.5 19 0 19 C0 12.73 0 6.46 0 0 Z " fill="#199CE2" transform="translate(52,56)"/>
<path d="M0 0 C15.18 0 30.36 0 46 0 C46 1.65 46 3.3 46 5 C44 7 44 7 42.08908081 7.24050903 C40.92325974 7.2338472 40.92325974 7.2338472 39.73388672 7.22705078 C38.85312469 7.22689972 37.97236267 7.22674866 37.06491089 7.22659302 C36.11278717 7.21627045 35.16066345 7.20594788 34.1796875 7.1953125 C32.71899338 7.19106766 32.71899338 7.19106766 31.22879028 7.18673706 C28.11073651 7.17551913 24.99296732 7.1504117 21.875 7.125 C19.76432706 7.11497228 17.65364962 7.10584607 15.54296875 7.09765625 C10.36188165 7.07557458 5.18096115 7.04208129 0 7 C0 4.69 0 2.38 0 0 Z " fill="#35C1F1" transform="translate(44,81)"/>
<path d="M0 0 C6.6 0 13.2 0 20 0 C20 1.65 20 3.3 20 5 C13.4 5 6.8 5 0 5 C0 3.35 0 1.7 0 0 Z " fill="#0078D4" transform="translate(23,82)"/>
<path d="M0 0 C4.29 0 8.58 0 13 0 C13 2.31 13 4.62 13 7 C11.20866022 7.05391993 9.41686101 7.09275571 7.625 7.125 C6.62726562 7.14820312 5.62953125 7.17140625 4.6015625 7.1953125 C2 7 2 7 0 5 C0 3.35 0 1.7 0 0 Z " fill="#34C0F0" transform="translate(10,81)"/>
</svg>
